# xmcd CD database file
#
# Track frame offsets:
#	150
#	19114
#	38272
#	77928
#	95779
#	168803
#	200974
#
# Disc length: 3035 seconds
#
# Revision: 0
# Processed by: cddbd v1.5.2PL0 Copyright (c) Steve Scherf et al.
# Submitted via: CDex 1.70beta2
#
DISCID=520bd907
DTITLE=Joe Bonamassa - Live at Tolbert Theater @ Stage Center, Oklahoma City, OK. USA - 12 mai 2007 [CD2/2)
DYEAR=2007
DGENRE=Blues
TTITLE0=Highwater Everywhere
TTITLE1=Heartaches Were Nickels
TTITLE2=Woke Up Dreaming
TTITLE3=Django
TTITLE4=Just Got Paid > Dazed and Confused
TTITLE5=Asking Around For You
TTITLE6=One of These Days
EXTD=YEAR: 2007
EXTT0=
EXTT1=
EXTT2=
EXTT3=
EXTT4=
EXTT5=
EXTT6=
PLAYORDER=
